<svg xmlns="http://www.w3.org/2000/svg" width="24" height="24" viewBox="0 0 24 24" fill="white">
  <path
    fill-rule="evenodd"
    clip-rule="evenodd"
    d="M12 0C5.373 0 0 5.373 0 12C0 17.193 3.438 21.405 8.205 23.276C8.805 23.396 9.005 23.007 9.005 22.656C9.005 22.356 9.005 21.28 9.005 19.449C6.84 20.049 5.942 18.164 5.942 18.164C5.331 16.953 4.363 16.483 4.363 16.483C3.402 15.758 4.464 15.773 4.464 15.773C5.609 15.864 6.194 16.987 6.194 16.987C7.108 18.556 8.549 18.021 9.025 17.783C9.133 17.009 9.45 16.483 9.788 16.189C7.063 15.839 4.281 14.944 4.281 10.627C4.281 9.404 4.776 8.363 5.591 7.563C5.475 7.283 5.085 5.991 5.634 4.517C5.634 4.517 6.669 4.167 9.005 5.676C9.938 5.476 10.976 5.376 12.015 5.376C13.054 5.376 14.093 5.476 15.026 5.676C17.361 4.167 18.396 4.517 18.396 4.517C18.945 5.991 18.556 7.283 18.436 7.563C19.25 8.363 19.744 9.404 19.744 10.627C19.744 14.957 16.959 15.836 14.228 16.179C14.681 16.604 15.003 17.3 15.003 18.156C15.003 19.402 15.003 20.256 15.003 21.006C15.003 22.012 15.199 22.404 15.806 22.274C20.571 20.401 24 16.193 24 12C24 5.373 18.627 0 12 0Z"
  />
</svg>
